<svg xmlns="http://www.w3.org/2000/svg" viewBox="0 0 70 13" version="1.1" id="svg885"> <defs id="defs879"/> <g id="layer1" transform="translate(-18.126544,-113.60792)"> <path d="m 20.23731,116.94061 -1.947334,9.144 h 2.370667 l 1.1684,-5.4864 c 0.254,-1.18533 1.016,-1.91347 1.998133,-1.91347 0.6604,0 1.0668,0.38947 1.0668,0.98214 0,0.2032 -0.01693,0.37253 -0.0508,0.5588 l -1.253067,5.85893 h 2.370667 l 1.1684,-5.4864 c 0.254,-1.2192 1.016001,-1.91347 2.082801,-1.91347 0.643466,0 0.982133,0.33867 0.982133,0.94827 0,0.2032 -0.03387,0.4572 -0.08467,0.69427 l -1.219199,5.75733 h 2.370666 l 1.303867,-6.12987 c 0.1016,-0.508 0.135466,-0.7112 0.135466,-1.03293 0,-1.35467 -0.880533,-2.1336 -2.404533,-2.1336 -1.151467,0 -2.065866,0.42333 -2.997201,1.38853 -0.237066,-0.84666 -1.049866,-1.38853 -2.099733,-1.38853 -1.1176,0 -1.896533,0.4064 -2.8956,1.524 l 0.287867,-1.3716 z" style="fill:none;fill-opacity:1;stroke:#FFFFFF;stroke-width:0.26458332;stroke-opacity:1" id="path827"/> <path d="m 37.780242,116.94061 h -2.370666 l -1.947333,9.144 h 2.370666 z m 0.677334,-3.2004 h -2.370667 l -0.4572,2.11667 h 2.370667 z" style="fill:none;fill-opacity:1;stroke:#FFFFFF;stroke-width:0.26458332;stroke-opacity:1" id="path829"/> <path d="m 44.045573,117.12688 h -1.3208 l 0.524934,-2.45534 H 40.87904 l -0.524933,2.45534 h -1.1684 l -0.338667,1.5748 h 1.1684 l -1.185333,5.62186 c -0.0508,0.23707 -0.08467,0.47414 -0.08467,0.69427 0,0.94827 0.677333,1.45627 1.913467,1.45627 0.5588,0 0.9652,-0.0508 1.439333,-0.18627 l 0.338667,-1.65947 c -0.237067,0.0339 -0.372534,0.0508 -0.5588,0.0508 -0.4064,0 -0.643467,-0.1524 -0.643467,-0.42333 0,-0.0677 0.03387,-0.28787 0.1016,-0.57573 l 1.049867,-4.9784 h 1.3208 z" style="fill:none;fill-opacity:1;stroke:#FFFFFF;stroke-width:0.26458332;stroke-opacity:1" id="path831"/> <path d="m 52.630725,120.36114 c 0.0508,-0.4064 0.06773,-0.5588 0.06773,-0.72813 0,-0.7112 -0.287867,-1.38853 -0.8128,-1.91347 -0.626533,-0.64346 -1.4224,-0.93133 -2.556933,-0.93133 -1.591736,0 -2.8448,0.52493 -3.725334,1.60867 -0.999066,1.18533 -1.710267,3.16653 -1.710267,4.7752 0,0.84666 0.3048,1.6764 0.829734,2.26906 0.6096,0.69427 1.557867,1.03294 2.794,1.03294 2.201331,0 3.8608,-1.28694 4.572,-3.556 h -2.269069 c -0.524931,1.20226 -1.083731,1.65946 -1.998131,1.65946 -1.016,0 -1.507067,-0.5588 -1.507067,-1.74413 0,-0.9144 0.220134,-1.89653 0.626534,-2.70933 0.474133,-0.99907 1.100664,-1.43934 2.032,-1.43934 0.5588,0 0.982133,0.2032 1.202264,0.5588 0.135469,0.254 0.169336,0.4572 0.186269,1.1176 z" style="fill:none;fill-opacity:1;stroke:#FFFFFF;stroke-width:0.26458332;stroke-opacity:1" id="path833"/> <path d="m 55.729507,113.74021 -2.624664,12.3444 h 2.370664 l 1.100669,-5.14773 c 0.287867,-1.3716 1.185331,-2.25214 2.286,-2.25214 0.795864,0 1.2192,0.4572 1.2192,1.28694 0,0.22013 -0.03387,0.44026 -0.1016,0.8128 l -1.134536,5.30013 h 2.370669 l 1.303867,-6.12987 c 0.06773,-0.32173 0.1016,-0.62653 0.1016,-0.93133 0,-1.33773 -0.982136,-2.2352 -2.455336,-2.2352 -1.2192,0 -2.1336,0.47413 -3.047997,1.54093 l 0.982133,-4.58893 z" style="fill:none;fill-opacity:1;stroke:#FFFFFF;stroke-width:0.26458332;stroke-opacity:1" id="path835"/> <path d="m 66.465208,123.61234 h -2.54 l -0.524933,2.47227 h 2.54 z" style="fill:none;fill-opacity:1;stroke:#FFFFFF;stroke-width:0.26458332;stroke-opacity:1" id="path837"/> <path d="m 77.065475,120.36114 c 0.0508,-0.4064 0.06773,-0.5588 0.06773,-0.72813 0,-0.7112 -0.287864,-1.38853 -0.8128,-1.91347 -0.626531,-0.64346 -1.422397,-0.93133 -2.556931,-0.93133 -1.591733,0 -2.8448,0.52493 -3.725333,1.60867 -0.999067,1.18533 -1.710267,3.16653 -1.710267,4.7752 0,0.84666 0.3048,1.6764 0.829734,2.26906 0.6096,0.69427 1.557866,1.03294 2.794,1.03294 2.201333,0 3.8608,-1.28694 4.571997,-3.556 h -2.269064 c -0.524933,1.20226 -1.083733,1.65946 -1.998133,1.65946 -1.016,0 -1.507067,-0.5588 -1.507067,-1.74413 0,-0.9144 0.220133,-1.89653 0.626533,-2.70933 0.474134,-0.99907 1.100667,-1.43934 2.032,-1.43934 0.5588,0 0.982134,0.2032 1.202267,0.5588 0.135467,0.254 0.169333,0.4572 0.186267,1.1176 z" style="fill:none;fill-opacity:1;stroke:#FFFFFF;stroke-width:0.26458332;stroke-opacity:1" id="path839"/> <path d="m 83.398536,121.44488 4.0132,-4.50427 h -2.8448 l -2.0828,2.76013 -0.8636,-2.76013 h -2.8448 l 1.8796,4.50427 -3.945466,4.63973 h 2.8448 l 2.0828,-2.8448 0.999066,2.8448 h 2.8448 z" style="fill:none;fill-opacity:1;stroke:#FFFFFF;stroke-width:0.26458332;stroke-opacity:1" id="path841"/> </g></svg>